<svg width="50" height="38" fill="none" xmlns="http://www.w3.org/2000/svg">
<path d="M12.088 1.11493H38.0961L47.6201 12.4705L24.1763 35.5481L1.09872 11.7379L12.088 1.11493Z" fill="#32E3EE"/>
<path d="M26.7431 32.0405L46.2196 12.2568H34.8906L26.7431 32.0405ZM22.3377 32.0345L14.1713 12.2564H2.86691L22.3377 32.0345ZM16.3834 12.2564L24.5421 32.0163L32.6798 12.2564H16.3834ZM10.3649 3.03748L4.36731 10.2168H13.3289L10.3649 3.03748ZM12.1717 2.05634L15.5411 10.217H33.5198L36.8802 2.05634H12.1717ZM38.6982 3.00964L35.7304 10.2169H44.7194L38.6982 3.00964ZM24.6815 37.0463L24.5443 37.3796L24.4081 37.0498L0 12.2566L10.2259 0.0159912H38.8596L49.0856 12.2566L24.6815 37.0463Z" fill="#302A48"/>
</svg>
