<svg width="36" height="45" viewBox="0 0 36 45" fill="none" xmlns="http://www.w3.org/2000/svg">
<path d="M19.516 7.84757L25.0107 3.45184L28.3075 12.2433L34.1685 25.4305L29.0401 38.2513L19.516 43.0133L9.25936 40.8155L3.76471 33.123L4.13102 21.0347L7.79412 15.9064L12.1898 21.0347L14.754 15.5401L19.516 7.84757Z" fill="#EB2E50"/>
<path d="M11.7485 43.5178C11.7485 43.5178 11.8584 43.5178 11.8584 43.6282C12.6304 43.9599 13.4016 44.1813 14.1737 44.4028H14.3944C15.7169 44.7345 17.0401 44.8449 18.3627 44.8449C19.6852 44.8449 21.0084 44.7345 22.331 44.4028C23.2129 44.1813 24.0948 43.9607 24.9767 43.5178C31.7008 40.7526 35.9998 34.3374 35.9998 27.1482C35.9998 23.1663 35.0079 19.9591 32.8035 17.0827C32.8035 16.9724 32.6935 16.9724 32.6935 16.8613C27.6225 10.6675 27.6225 2.37195 27.6225 2.37195C27.6225 1.487 27.1819 0.823495 26.41 0.381422C25.638 0.0496596 24.7568 0.0496598 24.0947 0.602853C16.3788 6.13321 12.851 13.1017 11.3078 17.5257C10.9771 16.5305 10.7564 15.5352 10.7564 15.0924C10.6465 14.3178 10.2051 13.5439 9.4339 13.2122C8.66192 12.8804 7.78076 12.9907 7.22949 13.5439C3.15115 16.9725 0.836104 21.9499 0.836104 27.1484C0.725381 34.3375 5.02428 40.7529 11.7486 43.5181L11.7485 43.5178ZM7.4495 19.6267C8.11076 21.3966 9.32332 23.1665 11.1971 24.2722C11.8584 24.6039 12.6304 24.7143 13.2917 24.3825C13.9531 24.0508 14.3943 23.3872 14.5043 22.7237C14.5043 22.6134 15.6069 13.9862 23.6535 6.57469C24.2048 10.1145 25.748 15.0916 29.275 19.5157V19.6261C30.9282 21.7278 31.5903 24.1611 31.5903 27.1469C31.5903 32.5669 28.394 37.3228 23.433 39.4243L21.3384 40.0879C19.3547 40.5299 17.3701 40.5299 15.3863 40.0879L13.2918 39.4243C8.33158 37.3226 5.13449 32.5669 5.13449 27.1469C5.13449 24.3833 5.90649 21.8388 7.44974 19.6268L7.4495 19.6267Z" fill="#302A48"/>
</svg>
