<svg width="60" height="57" viewBox="0 0 60 57" fill="none" xmlns="http://www.w3.org/2000/svg">
<path fill-rule="evenodd" clip-rule="evenodd" d="M30 0C13.4735 0 0 13.0441 0 29.1232C0 42.0382 8.56195 52.9514 20.5088 56.8258C22.0354 57.0841 22.5664 56.1801 22.5664 55.4052C22.5664 54.6949 22.5664 52.8868 22.5 50.4329C14.1372 52.1765 12.4115 46.4939 12.4115 46.4939C11.0177 43.136 9.09292 42.2319 9.09292 42.2319C6.37168 40.4238 9.29204 40.4884 9.29204 40.4884C12.2788 40.6821 13.8717 43.5234 13.8717 43.5234C16.5265 47.9791 20.9071 46.6876 22.5664 45.9773C22.8319 44.1046 23.6283 42.8131 24.4911 42.1028C17.854 41.3925 10.8186 38.874 10.8186 27.7026C10.8186 24.5384 12.0133 21.8909 13.9381 19.889C13.6062 19.1787 12.6106 16.2083 14.2035 12.1401C14.2035 12.1401 16.7257 11.3652 22.4336 15.1105C24.823 14.4648 27.4115 14.1419 29.9336 14.1419C32.4558 14.1419 35.0442 14.4648 37.4336 15.1105C43.1416 11.3652 45.6637 12.1401 45.6637 12.1401C47.323 16.1437 46.2611 19.1141 45.9292 19.889C47.854 21.9554 48.9823 24.5384 48.9823 27.7026C48.9823 38.9386 41.9469 41.3925 35.3097 42.1028C36.3717 43.0068 37.3673 44.8149 37.3673 47.5271C37.3673 51.4016 37.3009 54.5657 37.3009 55.5343C37.3009 56.3092 37.8319 57.2133 39.3584 56.955C51.4381 52.9514 60 42.0382 60 29.1232C60 13.0441 46.5929 0 30 0Z" fill="#181616"/>
</svg>
