<svg width="65" height="65" viewBox="0 0 65 65" fill="none" xmlns="http://www.w3.org/2000/svg">
<path d="M35.0368 61.4177C51.2 59.8242 63.0112 45.4295 61.4177 29.2662C59.8242 13.1029 45.4295 1.29178 29.2662 2.88528C13.1029 4.47878 1.29179 18.8735 2.88529 35.0368C4.47879 51.2 18.8735 63.0112 35.0368 61.4177Z" fill="#0172B1"/>
<path fill-rule="evenodd" clip-rule="evenodd" d="M34.0498 29.3995C34.1808 29.2686 34.2463 29.2031 34.3118 29.1376C36.2766 26.2558 39.0929 25.4043 42.4332 25.9283C46.2319 26.5178 48.6552 29.2031 49.3102 33.2638C49.4411 34.2462 49.5066 35.2286 49.5066 36.1455C49.5066 40.2063 49.5066 44.267 49.5066 48.3277C49.5066 48.7861 49.3756 48.9171 48.9172 48.9171C46.8213 48.9171 44.66 48.9171 42.5641 48.9171C42.1057 48.9171 41.9747 48.7861 41.9747 48.3277C41.9747 44.5289 41.9747 40.7302 41.9747 36.997C41.9747 36.1455 41.9092 35.2941 41.6472 34.4427C40.8613 31.7574 37.8485 30.8404 35.6872 32.6088C34.5082 33.5257 34.0498 34.7701 34.0498 36.2765C34.0498 39.8788 34.0498 43.4155 34.0498 47.0177C34.0498 47.4762 34.0498 47.9347 34.0498 48.3931C34.0498 48.7861 33.9188 48.8516 33.5258 48.8516C31.3645 48.8516 29.2031 48.8516 27.0418 48.8516C26.6488 48.8516 26.5178 48.7861 26.5178 48.3277C26.5178 45.1184 26.5833 41.9091 26.5833 38.6999C26.5833 34.7701 26.5833 30.7749 26.5178 26.8452C26.5178 26.3868 26.5833 26.2558 27.0418 26.2558C29.2031 26.2558 31.3645 26.2558 33.5258 26.2558C33.9188 26.2558 34.0498 26.3868 33.9843 26.7797C34.0498 27.5657 34.0498 28.4171 34.0498 29.3995Z" fill="#FEFEFE"/>
<path fill-rule="evenodd" clip-rule="evenodd" d="M22.3916 37.5864C22.3916 41.1232 22.3916 44.7254 22.3916 48.2622C22.3916 48.7206 22.3261 48.8516 21.8021 48.8516C19.6408 48.8516 17.4794 48.8516 15.3836 48.8516C14.9906 48.8516 14.8596 48.7861 14.8596 48.3277C14.8596 41.1232 14.8596 33.9187 14.8596 26.7142C14.8596 26.3213 14.9251 26.1903 15.3181 26.1903C17.4794 26.1903 19.7063 26.1903 21.8676 26.1903C22.3261 26.1903 22.3916 26.3213 22.3916 26.7142C22.3916 30.382 22.3916 33.9842 22.3916 37.5864Z" fill="#FEFEFE"/>
<path fill-rule="evenodd" clip-rule="evenodd" d="M18.7238 15.3836C21.6056 15.3836 23.4395 17.6759 22.7845 20.3612C22.2605 22.3916 20.1647 23.5705 17.7414 23.1775C15.1871 22.7845 13.7462 20.2957 14.7286 17.8724C15.3181 16.3005 16.8244 15.3836 18.7238 15.3836Z" fill="#FEFEFE"/>
</svg>
