<svg width="195" height="50" viewBox="0 0 195 50" fill="none" xmlns="http://www.w3.org/2000/svg">
<path d="M84.7235 18.6933V37.78H78.3503V18.6933H73.127V13.3057H89.9469V18.6933H84.7235Z" fill="#191919"/>
<path d="M104.764 21.1243H110.677V37.78H104.764V35.9403C103.515 37.5172 101.807 38.3056 99.6717 38.3056C98.4562 38.3056 97.3392 38.0756 96.3208 37.6486C95.3025 37.2215 94.4155 36.5973 93.6599 35.776C92.9043 34.9876 92.313 34.0349 91.8859 32.9508C91.4588 31.8667 91.2617 30.6841 91.2617 29.4028C91.2617 28.2202 91.4588 27.0704 91.8859 26.0191C92.313 24.935 92.8714 24.0152 93.5942 23.1939C94.3169 22.4055 95.2039 21.7484 96.2223 21.2885C97.2407 20.8286 98.3576 20.5986 99.606 20.5986C101.676 20.5986 103.417 21.3214 104.764 22.7668V21.1243ZM97.3392 29.4028C97.3392 29.9285 97.4378 30.4541 97.6349 30.914C97.832 31.3739 98.0948 31.801 98.4234 32.1295C98.7519 32.4909 99.1461 32.7537 99.6389 32.9508C100.099 33.1479 100.624 33.2465 101.15 33.2465C101.676 33.2465 102.168 33.1479 102.628 32.9508C103.088 32.7537 103.482 32.4909 103.844 32.1295C104.172 31.7681 104.435 31.3739 104.665 30.914C104.862 30.4541 104.961 29.9613 104.961 29.4685C104.961 28.9429 104.862 28.4501 104.665 27.9902C104.468 27.5303 104.172 27.1032 103.844 26.7747C103.515 26.4134 103.121 26.1505 102.628 25.9534C102.136 25.7563 101.676 25.6578 101.15 25.6578C100.624 25.6578 100.099 25.7563 99.6389 25.9534C99.1789 26.1505 98.7847 26.4134 98.4234 26.7747C98.0948 27.1361 97.832 27.5303 97.6349 27.9574C97.4378 28.3844 97.3392 28.8772 97.3392 29.4028Z" fill="#191919"/>
<path d="M121.353 10.8086V37.7797H115.473V10.8086H121.353Z" fill="#191919"/>
<path d="M126.149 21.1241H132.03V23.2266C132.818 22.241 133.64 21.584 134.461 21.2555C135.282 20.927 136.235 20.7627 137.352 20.7627C138.534 20.7627 139.52 20.9598 140.341 21.3212C141.163 21.7154 141.885 22.241 142.477 22.9309C142.937 23.4894 143.265 24.1136 143.462 24.8034C143.626 25.4933 143.725 26.2817 143.725 27.1687V37.7469H137.845V29.3369C137.845 28.5157 137.779 27.8586 137.68 27.333C137.549 26.8402 137.352 26.4132 137.056 26.1175C136.793 25.8547 136.498 25.6576 136.169 25.559C135.841 25.4605 135.512 25.3948 135.118 25.3948C134.132 25.3948 133.344 25.6904 132.818 26.2818C132.293 26.8731 132.03 27.7272 132.03 28.8442V37.7469H126.149V21.1241Z" fill="#191919"/>
<path d="M153.843 30.4534C153.843 32.9829 155.025 34.2642 157.423 34.2642C158.705 34.2642 159.657 33.7385 160.314 32.7201H165.998C164.848 36.5309 161.99 38.4363 157.391 38.4363C155.978 38.4363 154.697 38.2392 153.514 37.8121C152.331 37.385 151.346 36.7937 150.525 36.0053C149.703 35.2168 149.046 34.297 148.586 33.2129C148.126 32.1288 147.896 30.9133 147.896 29.5664C147.896 28.1866 148.126 26.9383 148.554 25.8213C148.981 24.7044 149.605 23.7517 150.393 22.9632C151.182 22.1748 152.167 21.5835 153.317 21.1564C154.467 20.7293 155.748 20.5322 157.161 20.5322C158.573 20.5322 159.822 20.7293 160.971 21.1564C162.121 21.5835 163.041 22.1748 163.829 22.9961C164.618 23.7845 165.209 24.7701 165.603 25.9199C166.031 27.0697 166.228 28.3837 166.228 29.8292V30.4534H153.843ZM160.741 27.0368C160.544 26.2155 160.15 25.5585 159.526 25.0657C158.935 24.573 158.179 24.3102 157.325 24.3102C156.405 24.3102 155.682 24.5401 155.091 25.0329C154.532 25.5257 154.138 26.1827 154.007 27.0368H160.741Z" fill="#191919"/>
<path d="M177.168 26.0192V37.78H171.288V26.0192H169.35V21.1243H171.288V16.1309H177.168V21.1243H180.519V26.0192H177.168Z" fill="#191919"/>
<path d="M183.969 33.4098C183.969 32.6871 184.1 31.9972 184.396 31.3402C184.659 30.6832 185.053 30.1247 185.546 29.6319C186.038 29.1391 186.597 28.7778 187.254 28.4821C187.911 28.2193 188.601 28.0879 189.324 28.0879C190.046 28.0879 190.736 28.2193 191.393 28.4821C192.05 28.7449 192.609 29.1391 193.101 29.6319C193.594 30.1247 193.956 30.6832 194.251 31.3402C194.514 31.9972 194.645 32.6871 194.645 33.4098C194.645 34.1326 194.514 34.8224 194.251 35.4795C193.988 36.1365 193.594 36.695 193.101 37.1878C192.609 37.6805 192.05 38.0419 191.393 38.3376C190.736 38.6004 190.046 38.7646 189.324 38.7646C188.601 38.7646 187.911 38.6332 187.254 38.3376C186.597 38.0747 186.038 37.6805 185.546 37.1878C185.053 36.695 184.691 36.1365 184.396 35.4795C184.1 34.8224 183.969 34.1326 183.969 33.4098Z" fill="#BA00FF"/>
<path d="M31.6354 0.492773C32.391 0.42707 34.7891 0 35.5776 0C49.4081 0 60.4462 11.1367 60.4462 24.9343C60.4462 38.7648 49.2109 50 35.3805 50C34.2635 50 31.8653 49.7043 30.7812 49.5729L33.5736 49.113C34.165 49.1459 34.7891 49.1787 35.3805 49.1787C48.751 49.1787 59.6249 38.3049 59.6249 24.9343C59.6249 11.5637 48.751 0.689884 35.3805 0.689884C34.7891 0.689884 34.165 0.722734 33.5736 0.755586L31.6354 0.492773Z" fill="black"/>
<path d="M32.3259 0.459961C32.0959 0.459961 31.8659 0.459958 31.636 0.492809C43.8567 1.93828 53.3508 12.3522 53.3508 24.9672C53.3508 38.0421 43.134 48.7517 30.2891 49.573C30.8147 49.6058 31.3403 49.6387 31.8659 49.6387C45.4665 49.6387 56.5046 38.5677 56.5046 25C56.5046 11.3667 45.8935 0.459961 32.3259 0.459961Z" fill="black"/>
<path d="M24.9014 49.8029C11.1695 49.8029 0 38.6334 0 24.9014C0 11.1695 11.1695 0 24.9014 0C38.6334 0 49.8029 11.1695 49.8029 24.9014C49.8029 38.6334 38.6334 49.8029 24.9014 49.8029ZM24.9014 1.87254C12.2208 1.87254 1.87254 12.1879 1.87254 24.9014C1.87254 37.5821 12.1879 47.9304 24.9014 47.9304C37.615 47.9304 47.9304 37.5821 47.9304 24.9014C47.9304 12.2208 37.615 1.87254 24.9014 1.87254Z" fill="black"/>
<path d="M24.8035 45.6305C13.3712 45.6305 4.07422 36.3335 4.07422 24.9012C4.07422 13.4689 13.3712 4.17188 24.8035 4.17188C36.2359 4.17188 45.5328 13.4689 45.5328 24.9012C45.5 36.3335 36.2359 45.6305 24.8035 45.6305ZM24.8035 4.43469C13.5026 4.43469 4.33703 13.6331 4.33703 24.9012C4.33703 36.1693 13.5355 45.3677 24.8035 45.3677C36.0716 45.3677 45.27 36.1693 45.27 24.9012C45.27 13.6331 36.1044 4.43469 24.8035 4.43469Z" fill="#191919"/>
<path fill-rule="evenodd" clip-rule="evenodd" d="M37.8123 32.3583L38.1408 30.8471H35.8412L37.8123 32.3583ZM23.2919 22.5686C24.3431 23.9155 23.3576 25.9851 23.3576 25.9851C26.3471 27.6934 28.4824 25.5252 28.4824 25.5252C30.2564 23.6198 30.2564 20.4332 30.2564 20.4332C33.8701 18.6592 34.6914 15.6697 34.6914 15.6697L33.3445 14.3885C28.1539 18.6592 27.2012 19.5791 27.2012 19.5791C24.7374 21.7144 23.2919 22.5686 23.2919 22.5686ZM40.1447 25.7223C38.8964 22.24 38.5021 21.2545 38.5021 21.2545C37.3852 18.9549 35.2498 16.4582 35.2498 16.4582C33.8372 19.7105 30.9463 20.9588 30.9463 20.9588C30.8477 25.1638 28.6138 26.5107 28.6138 26.5107C26.4785 28.0548 23.8175 27.1678 23.8175 27.1678C22.5363 26.6093 22.4706 26.3136 22.4706 26.3136C22.5035 26.1165 22.6349 25.7223 22.6349 25.7223C23.0291 24.4739 22.9634 23.5213 22.9634 23.5213C22.832 22.7657 22.0435 22.9299 22.0435 22.9299C21.715 22.9628 21.3537 22.9956 21.3537 22.9956C21.8136 22.3714 21.8793 22.1415 21.8793 22.1415C22.6677 22.1086 23.0948 21.813 23.0948 21.813C24.0146 21.2874 26.9056 18.922 26.9056 18.922L30.0265 16.1954L33.2787 13.5344C33.3773 12.7131 33.1473 11.9904 33.1473 11.9904C31.1434 12.746 29.8622 14.3557 29.8622 14.3557C29.0409 12.7131 28.6795 12.1875 28.6795 12.1875C29.0738 10.4135 29.238 9.59221 29.238 9.59221C25.7229 7.48971 21.1237 8.1796 21.1237 8.1796C13.765 8.93518 8.41016 17.0167 8.41016 17.0167L9.75707 18.4621C7.2275 30.8143 14.1592 34.7565 14.1592 34.7565C15.5718 32.6211 15.966 32.0626 15.966 32.0626L17.2801 32.0955V37.8774L22.5363 38.8301C21.4522 31.11 21.1894 29.5659 21.1894 29.5659C19.1526 28.1533 19.0212 26.7078 19.0212 26.7078L19.6454 25.7223C19.8096 28.2847 22.0764 29.2703 22.0764 29.2703C22.602 29.6316 22.6677 30.0916 22.6677 30.0916C23.0619 31.6684 23.9161 31.8327 23.9161 31.8327C24.4088 31.9641 25.263 31.6027 25.263 31.6027L25.5258 32.2926C22.7991 33.5738 22.1092 31.0114 22.1092 31.0114L23.2919 38.9615L31.7019 40.4398C31.4062 37.5488 29.4351 36.4648 29.4351 36.4648C27.0041 34.4937 26.2814 34.1323 26.2814 34.1323L26.7413 33.5081C30.0593 35.4464 32.0304 38.2387 32.0304 38.2387C35.9069 38.5015 36.761 36.9247 36.761 36.9247C37.3523 35.6106 36.8267 34.5922 36.8267 34.5922L37.2866 32.9825C34.0343 30.6172 33.5744 30.1901 33.5744 30.1901C36.2025 30.0916 37.9765 29.3031 37.9765 29.3031L38.2393 28.0876C39.1263 28.2847 40.1776 28.1533 40.1776 28.1533C40.6703 28.0219 40.7032 27.5948 40.7032 27.5948C40.6703 27.0364 40.1447 25.7223 40.1447 25.7223ZM36.0711 23.7184C36.0711 23.7184 34.6257 25.0653 30.7492 24.1783C30.7492 24.1783 30.9463 23.2584 31.8004 22.24C31.8004 22.24 33.4759 20.1047 37.6809 21.5502C37.7137 21.5502 37.2538 22.6671 36.0711 23.7184Z" fill="black"/>
<path fill-rule="evenodd" clip-rule="evenodd" d="M36.564 22.0432C33.1146 21.2548 32.3261 22.8974 32.3261 22.8974C31.8662 23.4887 31.8662 23.6201 31.8662 23.6201C35.6441 24.31 36.564 22.0432 36.564 22.0432Z" fill="black"/>
</svg>
