<svg width="10" height="16" viewBox="0 0 10 16" fill="none" xmlns="http://www.w3.org/2000/svg">
<path d="M9.98 7.85233C9.92835 7.67446 9.77342 7.5321 9.60131 7.47873L6.14109 6.69591L7.41504 0.629286C7.46668 0.398052 7.34622 0.148946 7.13964 0.0422034C6.91576 -0.0466703 6.67471 0.00670087 6.5026 0.184567L0.133137 7.65653C0.0126712 7.78102 -0.0217983 7.97676 0.0126712 8.13687C0.0471406 8.29698 0.167606 8.43935 0.339717 8.51047L3.67953 9.75576L2.09571 15.324C2.02689 15.5553 2.13018 15.8221 2.33676 15.9289C2.42287 15.9822 2.50887 16 2.59499 16C2.73274 16 2.87039 15.9466 2.97368 15.8399L9.85959 8.36792C9.98006 8.24355 10.0316 8.04806 9.98 7.85233Z" fill="#AA22F6"/>
</svg>
