<svg width="13" height="13" viewBox="0 0 13 13" fill="none" xmlns="http://www.w3.org/2000/svg">
<path d="M12.4797 5.49422C12.433 5.3517 12.3475 5.22511 12.2328 5.12856C12.1179 5.032 11.9785 4.96954 11.8301 4.94804L8.49425 4.45357L6.95171 1.38334C6.88147 1.25027 6.77472 1.13981 6.64406 1.06531C6.51321 0.990804 6.36402 0.95522 6.21372 0.962631C6.07453 0.967449 5.93924 1.00878 5.82118 1.08272C5.70331 1.15649 5.60694 1.26027 5.54207 1.38333L4.0661 4.4315L0.693216 4.92597C0.493428 4.95396 0.311428 5.05571 0.183369 5.21157C0.0551197 5.36725 -0.00974812 5.56537 0.00118801 5.76663C0.0123082 5.96809 0.0984893 6.15787 0.242865 6.29873L2.58993 8.70473L2.01428 12.0628C1.98945 12.2097 2.00594 12.3608 2.0621 12.4988C2.11807 12.6371 2.21147 12.7568 2.33157 12.8451C2.45333 12.9329 2.59697 12.9855 2.74672 12.9972C2.89628 13.0089 3.0464 12.9792 3.18039 12.9116L6.19891 11.3248L9.23227 12.9116C9.34903 12.9702 9.47803 13.0004 9.60869 13C9.84462 12.9991 10.0681 12.8943 10.2201 12.714C10.3723 12.5335 10.4373 12.2955 10.3984 12.0627L9.82275 8.70471L12.2656 6.32077C12.3759 6.21754 12.4547 6.08503 12.4926 5.93862C12.5305 5.79221 12.526 5.63822 12.4797 5.49422Z" fill="#AA22F6"/>
</svg>
