<svg width="42" height="42" viewBox="0 0 42 42" fill="none" xmlns="http://www.w3.org/2000/svg">
<path d="M0.94664 20.8659C0.94664 19.6782 1.91814 18.7068 3.10573 18.7068H8.72006L5.91318 15.8999C5.04937 15.0361 5.04937 13.7408 5.91318 12.8769C6.77699 12.0131 8.07227 12.0131 8.93618 12.8769L14.7658 18.7066H19.3003V14.1721L13.4707 8.34244C12.6069 7.47863 12.6069 6.18335 13.4707 5.31945C14.3345 4.45564 15.6298 4.45564 16.4937 5.31945L19.3005 8.12632V2.51199C19.3005 1.32435 20.272 0.352905 21.4596 0.352905C22.6472 0.352905 23.6187 1.32441 23.6187 2.51199V8.12632L26.4256 5.31945C27.2894 4.45564 28.5847 4.45564 29.4486 5.31945C30.3124 6.18325 30.3124 7.47853 29.4486 8.34244L23.6197 14.1721V18.7066H28.1542L33.9838 12.8769C34.8476 12.0131 36.1429 12.0131 37.0068 12.8769C37.8707 13.7407 37.8706 15.036 37.0068 15.8999L34.2 18.7068H39.8143C41.0019 18.7068 41.9734 19.6783 41.9734 20.8659C41.9734 22.0535 41.0019 23.025 39.8143 23.025H34.2L37.0068 25.8319C37.8706 26.6957 37.8706 27.9909 37.0068 28.8548C36.5753 29.2864 36.0353 29.5025 35.4954 29.5025C34.9554 29.5025 34.4154 29.2864 33.9839 28.8548L28.1542 23.0252H23.6198V27.5597L29.4494 33.3893C30.3132 34.2531 30.3132 35.5484 29.4494 36.4123C29.0179 36.8439 28.4779 37.06 27.938 37.06C27.398 37.06 26.858 36.8439 26.4265 36.4123L23.6196 33.6062V39.2206C23.6196 40.4082 22.6481 41.3796 21.4605 41.3796C20.2729 41.3796 19.3015 40.4081 19.3015 39.2206V33.6062L16.4946 36.4131C15.6308 37.2769 14.3355 37.2769 13.4716 36.4131C12.6078 35.5493 12.6078 34.254 13.4716 33.3901L19.3013 27.5604V23.0259H14.7668L8.9371 28.8556C8.50557 29.2871 7.9656 29.5033 7.42564 29.5033C6.88567 29.5033 6.34569 29.2871 5.91418 28.8556C5.05037 27.9918 5.05037 26.6965 5.91418 25.8326L8.72106 23.0257L3.10596 23.025C1.91832 23.025 0.946872 22.0535 0.946872 20.8659L0.94664 20.8659Z" fill="#302A48"/>
</svg>
