<svg width="11" height="11" viewBox="0 0 11 11" fill="none" xmlns="http://www.w3.org/2000/svg">
<path fill-rule="evenodd" clip-rule="evenodd" d="M0 5.5C0 2.46243 2.46243 0 5.5 0C6.95869 0 8.35764 0.579463 9.38909 1.61091C10.4205 2.64236 11 4.04131 11 5.5C11 8.53757 8.53757 11 5.5 11C2.46243 11 0 8.53757 0 5.5ZM6.28 2.75C6.28 2.31922 5.93078 1.97 5.5 1.97C5.06922 1.97 4.72 2.31922 4.72 2.75V6.05V6.46744L5.06733 6.699L6.71733 7.799C7.07577 8.03795 7.56004 7.9411 7.799 7.58267C8.03795 7.22423 7.9411 6.73996 7.58267 6.501L6.28 5.63256V2.75Z" fill="#AA22F6"/>
</svg>
